<svg width="60" height="60" viewBox="0 0 60 60" fill="none" xmlns="http://www.w3.org/2000/svg">
<path fill-rule="evenodd" clip-rule="evenodd" d="M30 6.875C17.2284 6.875 6.875 17.2284 6.875 30C6.875 42.7716 17.2284 53.125 30 53.125C42.7716 53.125 53.125 42.7716 53.125 30C53.125 17.2284 42.7716 6.875 30 6.875ZM3.125 30C3.125 15.1573 15.1573 3.125 30 3.125C44.8427 3.125 56.875 15.1573 56.875 30C56.875 44.8427 44.8427 56.875 30 56.875C15.1573 56.875 3.125 44.8427 3.125 30ZM30 13.125C31.0355 13.125 31.875 13.9645 31.875 15V15.7918C35.9511 16.5217 39.375 19.584 39.375 23.75C39.375 24.7855 38.5355 25.625 37.5 25.625C36.4645 25.625 35.625 24.7855 35.625 23.75C35.625 22.0539 34.2148 20.2585 31.875 19.6187V28.2918C35.9511 29.0217 39.375 32.084 39.375 36.25C39.375 40.416 35.9511 43.4783 31.875 44.2082V45C31.875 46.0355 31.0355 46.875 30 46.875C28.9645 46.875 28.125 46.0355 28.125 45V44.2082C24.0489 43.4783 20.625 40.416 20.625 36.25C20.625 35.2145 21.4645 34.375 22.5 34.375C23.5355 34.375 24.375 35.2145 24.375 36.25C24.375 37.9461 25.7852 39.7415 28.125 40.3813V31.7082C24.0489 30.9783 20.625 27.916 20.625 23.75C20.625 19.584 24.0489 16.5217 28.125 15.7918V15C28.125 13.9645 28.9645 13.125 30 13.125ZM28.125 19.6187C25.7852 20.2585 24.375 22.0539 24.375 23.75C24.375 25.4461 25.7852 27.2415 28.125 27.8813V19.6187ZM31.875 32.1187V40.3813C34.2148 39.7415 35.625 37.9461 35.625 36.25C35.625 34.5539 34.2148 32.7585 31.875 32.1187Z" fill="#0F6B12"/>
</svg>
