<svg width="60" height="60" viewBox="0 0 60 60" fill="none" xmlns="http://www.w3.org/2000/svg">
<path d="M27.1532 8.40838C28.4198 6.13613 29.0532 5 30 5C30.9469 5 31.5802 6.13612 32.8469 8.40837L33.1746 8.99623C33.5345 9.64193 33.7145 9.96479 33.9951 10.1778C34.2757 10.3908 34.6252 10.4699 35.3241 10.628L35.9605 10.772C38.4202 11.3286 39.65 11.6068 39.9426 12.5477C40.2352 13.4886 39.3968 14.4691 37.7199 16.4299L37.2861 16.9372C36.8096 17.4944 36.5714 17.773 36.4642 18.1177C36.357 18.4624 36.393 18.8341 36.465 19.5776L36.5306 20.2544C36.7842 22.8706 36.9109 24.1787 36.1449 24.7602C35.3789 25.3417 34.2274 24.8115 31.9244 23.7512L31.3285 23.4768C30.6741 23.1755 30.3469 23.0248 30 23.0248C29.6532 23.0248 29.326 23.1755 28.6715 23.4768L28.0757 23.7512C25.7727 24.8115 24.6212 25.3417 23.8552 24.7602C23.0892 24.1787 23.2159 22.8706 23.4694 20.2544L23.535 19.5776C23.6071 18.8341 23.6431 18.4624 23.5359 18.1177C23.4287 17.773 23.1905 17.4944 22.7139 16.9372L22.2801 16.4299C20.6033 14.4691 19.7649 13.4886 20.0575 12.5477C20.35 11.6068 21.5799 11.3286 24.0396 10.772L24.6759 10.628C25.3749 10.4699 25.7244 10.3908 26.005 10.1778C26.2856 9.96479 26.4656 9.64194 26.8255 8.99623L27.1532 8.40838Z" stroke="#0F6B12" stroke-width="3.8125"/>
<path d="M48.5766 19.2042C49.2099 18.0681 49.5266 17.5 50 17.5C50.4735 17.5 50.7901 18.0681 51.4234 19.2042L51.5873 19.4981C51.7673 19.821 51.8573 19.9824 51.9976 20.0889C52.1379 20.1954 52.3126 20.235 52.6621 20.314L52.9803 20.386C54.2101 20.6643 54.825 20.8034 54.9713 21.2739C55.1176 21.7443 54.6984 22.2345 53.86 23.215L53.6431 23.4686C53.4048 23.7472 53.2857 23.8865 53.2321 24.0589C53.1785 24.2312 53.1965 24.4171 53.2325 24.7888L53.2653 25.1272C53.3921 26.4353 53.4555 27.0894 53.0725 27.3801C52.6894 27.6709 52.1137 27.4058 50.9622 26.8756L50.6643 26.7384C50.3371 26.5878 50.1735 26.5124 50 26.5124C49.8266 26.5124 49.663 26.5878 49.3358 26.7384L49.0379 26.8756C47.8864 27.4058 47.3106 27.6709 46.9276 27.3801C46.5446 27.0894 46.608 26.4353 46.7347 25.1272L46.7675 24.7888C46.8035 24.4171 46.8216 24.2312 46.768 24.0589C46.7144 23.8865 46.5952 23.7472 46.357 23.4686L46.1401 23.215C45.3017 22.2345 44.8824 21.7443 45.0287 21.2739C45.175 20.8034 45.79 20.6643 47.0198 20.386L47.338 20.314C47.6875 20.235 47.8622 20.1954 48.0025 20.0889C48.1428 19.9824 48.2328 19.821 48.4128 19.4981L48.5766 19.2042Z" stroke="#0F6B12" stroke-width="3.8125"/>
<path d="M8.57658 19.2042C9.20991 18.0681 9.52657 17.5 10 17.5C10.4734 17.5 10.7901 18.0681 11.4234 19.2042L11.5873 19.4981C11.7672 19.821 11.8572 19.9824 11.9975 20.0889C12.1378 20.1954 12.3126 20.235 12.6621 20.314L12.9802 20.386C14.2101 20.6643 14.825 20.8034 14.9713 21.2739C15.1176 21.7443 14.6984 22.2345 13.86 23.215L13.643 23.4686C13.4048 23.7472 13.2857 23.8865 13.2321 24.0589C13.1785 24.2312 13.1965 24.4171 13.2325 24.7888L13.2653 25.1272C13.3921 26.4353 13.4554 27.0894 13.0724 27.3801C12.6894 27.6709 12.1137 27.4058 10.9622 26.8756L10.6643 26.7384C10.337 26.5878 10.1734 26.5124 10 26.5124C9.82657 26.5124 9.66296 26.5878 9.33574 26.7384L9.03784 26.8756C7.88634 27.4058 7.31059 27.6709 6.92757 27.3801C6.54456 27.0894 6.60794 26.4353 6.7347 25.1272L6.76749 24.7888C6.80351 24.4171 6.82152 24.2312 6.76793 24.0589C6.71434 23.8865 6.59521 23.7472 6.35696 23.4686L6.14005 23.215C5.30162 22.2345 4.88241 21.7443 5.02871 21.2739C5.17501 20.8034 5.78993 20.6643 7.01977 20.386L7.33794 20.314C7.68743 20.235 7.86217 20.1954 8.00247 20.0889C8.14278 19.9824 8.23276 19.821 8.41273 19.4981L8.57658 19.2042Z" stroke="#0F6B12" stroke-width="3.8125"/>
<path d="M12.5 50.971H18.1498C20.677 50.971 23.2313 51.2343 25.6908 51.741C30.0414 52.6373 34.6221 52.7459 39.0174 52.0344C41.1845 51.6836 43.3151 51.1473 45.2437 50.2164C46.9847 49.3761 49.1173 48.1916 50.5498 46.8648C51.9802 45.54 53.47 43.3718 54.5273 41.6769C55.434 40.2236 54.9955 38.4405 53.5613 37.3577C51.9683 36.1548 49.6043 36.155 48.0115 37.3582L43.4936 40.7711C41.7426 42.0938 39.8299 43.3114 37.5514 43.6748C37.2775 43.7185 36.9904 43.7583 36.6909 43.7931M36.6909 43.7931C36.6007 43.8035 36.5094 43.8135 36.417 43.823M36.6909 43.7931C37.0554 43.7149 37.4173 43.4902 37.7569 43.1938C39.3649 41.7903 39.4666 39.4251 38.0714 37.8579C37.7476 37.4943 37.3689 37.191 36.9477 36.9398C29.9543 32.7687 19.0735 35.9456 12.5 40.6074M36.6909 43.7931C36.5997 43.8126 36.5083 43.823 36.417 43.823M36.417 43.823C35.1086 43.9573 33.5779 43.992 31.8794 43.8316" stroke="#0F6B12" stroke-width="3.8125" stroke-linecap="round"/>
<rect x="5" y="35.0001" width="7.5" height="20" rx="3.75" stroke="#0F6B12" stroke-width="3.8125"/>
</svg>
