<svg width="60" height="60" viewBox="0 0 60 60" fill="none" xmlns="http://www.w3.org/2000/svg">
<path d="M5 35C5 25.5719 5 20.8579 7.92893 17.9289C10.8579 15 15.5719 15 25 15H35C44.4281 15 49.1421 15 52.0711 17.9289C55 20.8579 55 25.5719 55 35C55 44.4281 55 49.1421 52.0711 52.0711C49.1421 55 44.4281 55 35 55H25C15.5719 55 10.8579 55 7.92893 52.0711C5 49.1421 5 44.4281 5 35Z" stroke="#0F6B12" stroke-width="3.75"/>
<path d="M40 15C40 10.286 40 7.92893 38.5355 6.46447C37.0711 5 34.714 5 30 5C25.286 5 22.9289 5 21.4645 6.46447C20 7.92893 20 10.286 20 15" stroke="#0F6B12" stroke-width="3.75"/>
<path d="M33.75 35H26.25M30 31.25V38.75" stroke="#0F6B12" stroke-width="3.75" stroke-linecap="round"/>
<circle cx="30" cy="35" r="10" stroke="#0F6B12" stroke-width="3.75"/>
</svg>
