<svg width="21" height="22" viewBox="0 0 21 22" fill="none" xmlns="http://www.w3.org/2000/svg">
<path d="M14.4866 11.7929L14.0881 12.1891C14.0881 12.1891 13.1409 13.131 10.5552 10.5601C7.9696 7.98914 8.91687 7.04725 8.91687 7.04725L9.16783 6.79771C9.78606 6.18299 9.84435 5.19605 9.30496 4.47555L8.2016 3.0017C7.534 2.10993 6.24396 1.99212 5.47877 2.75297L4.10537 4.11858C3.72595 4.49584 3.4717 4.98489 3.50253 5.52741C3.58141 6.91534 4.20938 9.90157 7.71344 13.3857C11.4294 17.0806 14.916 17.2274 16.3417 17.0945C16.7927 17.0525 17.1849 16.8228 17.501 16.5085L18.744 15.2726C19.583 14.4383 19.3464 13.0081 18.2729 12.4245L16.6012 11.5157C15.8963 11.1326 15.0375 11.2451 14.4866 11.7929Z" fill="white"/>
</svg>
