<svg width="40" height="40" viewBox="0 0 40 40" fill="none" xmlns="http://www.w3.org/2000/svg">
<circle cx="20" cy="20" r="20" fill="#006400"/>
<path d="M27.8796 20C27.8796 24.3518 24.3518 27.8796 20 27.8796C15.6482 27.8796 12.1204 24.3518 12.1204 20C12.1204 15.6482 15.6482 12.1204 20 12.1204C24.3518 12.1204 27.8796 15.6482 27.8796 20Z" fill="#EBFF05"/>
<path fill-rule="evenodd" clip-rule="evenodd" d="M20 5.88235C20.544 5.88235 20.985 6.32333 20.985 6.86731V8.18058C20.985 8.72455 20.544 9.16553 20 9.16553C19.456 9.16553 19.015 8.72455 19.015 8.18058V6.86731C19.015 6.32333 19.456 5.88235 20 5.88235ZM10.0173 10.0173C10.402 9.63268 11.0256 9.63268 11.4103 10.0173L11.9262 10.5332C12.3108 10.9179 12.3108 11.5415 11.9262 11.9262C11.5415 12.3108 10.9179 12.3108 10.5332 11.9262L10.0173 11.4103C9.63268 11.0256 9.63268 10.402 10.0173 10.0173ZM29.9823 10.0177C30.367 10.4023 30.367 11.026 29.9823 11.4106L29.4664 11.9265C29.0818 12.3111 28.4581 12.3111 28.0735 11.9265C27.6889 11.5419 27.6889 10.9182 28.0735 10.5336L28.5894 10.0177C28.974 9.63302 29.5977 9.63302 29.9823 10.0177ZM5.88235 20C5.88235 19.456 6.32333 19.015 6.86731 19.015H8.18058C8.72455 19.015 9.16553 19.456 9.16553 20C9.16553 20.544 8.72455 20.985 8.18058 20.985H6.86731C6.32333 20.985 5.88235 20.544 5.88235 20ZM30.8345 20C30.8345 19.456 31.2755 19.015 31.8194 19.015H33.1327C33.6767 19.015 34.1176 19.456 34.1176 20C34.1176 20.544 33.6767 20.985 33.1327 20.985H31.8194C31.2755 20.985 30.8345 20.544 30.8345 20ZM28.0735 28.0735C28.4581 27.6889 29.0818 27.6889 29.4664 28.0735L29.9823 28.5894C30.367 28.974 30.367 29.5977 29.9823 29.9823C29.5977 30.367 28.974 30.367 28.5894 29.9823L28.0735 29.4664C27.6889 29.0818 27.6889 28.4581 28.0735 28.0735ZM11.9262 28.0738C12.3108 28.4585 12.3108 29.0821 11.9262 29.4668L11.4103 29.9827C11.0256 30.3673 10.402 30.3673 10.0173 29.9827C9.63268 29.598 9.63268 28.9744 10.0173 28.5897L10.5332 28.0738C10.9179 27.6892 11.5415 27.6892 11.9262 28.0738ZM20 30.8345C20.544 30.8345 20.985 31.2755 20.985 31.8194V33.1327C20.985 33.6767 20.544 34.1176 20 34.1176C19.456 34.1176 19.015 33.6767 19.015 33.1327V31.8194C19.015 31.2755 19.456 30.8345 20 30.8345Z" fill="#F0FE56"/>
</svg>
