<svg width="60" height="60" viewBox="0 0 60 60" fill="none" xmlns="http://www.w3.org/2000/svg">
<path fill-rule="evenodd" clip-rule="evenodd" d="M30 3.12494C23.4416 3.12494 18.125 8.44156 18.125 14.9999C18.125 21.5583 23.4416 26.8749 30 26.8749C36.5584 26.8749 41.875 21.5583 41.875 14.9999C41.875 8.44156 36.5584 3.12494 30 3.12494ZM21.875 14.9999C21.875 10.5126 25.5127 6.87494 30 6.87494C34.4873 6.87494 38.125 10.5126 38.125 14.9999C38.125 19.4873 34.4873 23.1249 30 23.1249C25.5127 23.1249 21.875 19.4873 21.875 14.9999Z" fill="#0F6B12"/>
<path d="M49.6388 36.4322C50.3819 37.1534 50.3997 38.3405 49.6785 39.0836L45.0955 43.8058C44.7253 44.1873 44.2104 44.3937 43.6792 44.3736C43.1479 44.3535 42.6501 44.1088 42.3097 43.7004L40.226 41.2004C39.563 40.405 39.6703 39.2227 40.4658 38.5597C41.2612 37.8966 42.4436 38.004 43.1066 38.7995L43.856 39.6985L46.9874 36.4719C47.7086 35.7288 48.8957 35.711 49.6388 36.4322Z" fill="#0F6B12"/>
<path fill-rule="evenodd" clip-rule="evenodd" d="M36.9366 31.2822C34.7548 30.8551 32.4212 30.6249 30 30.6249C24.2161 30.6249 18.8873 31.9396 14.9386 34.1608C11.0487 36.3489 8.12502 39.6651 8.12502 43.7499L8.12485 44.0048C8.12202 46.9095 8.11848 50.5549 11.316 53.1588C12.8897 54.4403 15.0912 55.3516 18.0655 55.9536C21.0482 56.5573 24.9356 56.8749 30 56.8749C37.1703 56.8749 42.0248 56.2402 45.299 55.0212C48.2462 53.9241 49.9932 52.3165 50.9259 50.293C54.4818 48.2414 56.875 44.4002 56.875 39.9999C56.875 33.4416 51.5584 28.1249 45 28.1249C41.8873 28.1249 39.0543 29.3226 36.9366 31.2822ZM36.875 39.9999C36.875 35.5126 40.5127 31.8749 45 31.8749C49.4873 31.8749 53.125 35.5126 53.125 39.9999C53.125 44.4873 49.4873 48.1249 45 48.1249C40.5127 48.1249 36.875 44.4873 36.875 39.9999ZM34.3893 34.6624C33.5805 36.2671 33.125 38.0803 33.125 39.9999C33.125 45.9732 37.5352 50.9163 43.2771 51.7509C40.6002 52.5914 36.445 53.1249 30 53.1249C25.0645 53.1249 21.4519 52.813 18.8095 52.2781C16.1588 51.7416 14.6103 51.0053 13.684 50.251C11.9758 48.86 11.875 47.0194 11.875 43.7499C11.875 41.6216 13.4285 39.3128 16.7771 37.4292C20.067 35.5786 24.7382 34.3749 30 34.3749C31.5151 34.3749 32.9849 34.4749 34.3893 34.6624Z" fill="#0F6B12"/>
</svg>
