<svg width="100" height="100" viewBox="0 0 100 100" fill="none" xmlns="http://www.w3.org/2000/svg">
<path d="M85.25 14.55C80.666 9.91963 75.2059 6.24834 69.1882 3.75026C63.1705 1.25217 56.7156 -0.0226981 50.2 3.01749e-07C22.9 3.01749e-07 0.650001 22.25 0.650001 49.55C0.650001 58.3 2.95 66.8 7.25 74.3L0.25 100L26.5 93.1C33.75 97.05 41.9 99.15 50.2 99.15C77.5 99.15 99.75 76.9 99.75 49.6C99.75 36.35 94.6 23.9 85.25 14.55ZM50.2 90.75C42.8 90.75 35.55 88.75 29.2 85L27.7 84.1L12.1 88.2L16.25 73L15.25 71.45C11.1387 64.8848 8.9557 57.2962 8.95 49.55C8.95 26.85 27.45 8.35 50.15 8.35C61.15 8.35 71.5 12.65 79.25 20.45C83.0874 24.2698 86.1285 28.8133 88.197 33.8171C90.2654 38.8209 91.3202 44.1855 91.3 49.6C91.4 72.3 72.9 90.75 50.2 90.75ZM72.8 59.95C71.55 59.35 65.45 56.35 64.35 55.9C63.2 55.5 62.4 55.3 61.55 56.5C60.7 57.75 58.35 60.55 57.65 61.35C56.95 62.2 56.2 62.3 54.95 61.65C53.7 61.05 49.7 59.7 45 55.5C41.3 52.2 38.85 48.15 38.1 46.9C37.4 45.65 38 45 38.65 44.35C39.2 43.8 39.9 42.9 40.5 42.2C41.1 41.5 41.35 40.95 41.75 40.15C42.15 39.3 41.95 38.6 41.65 38C41.35 37.4 38.85 31.3 37.85 28.8C36.85 26.4 35.8 26.7 35.05 26.65H32.65C31.8 26.65 30.5 26.95 29.35 28.2C28.25 29.45 25.05 32.45 25.05 38.55C25.05 44.65 29.5 50.55 30.1 51.35C30.7 52.2 38.85 64.7 51.25 70.05C54.2 71.35 56.5 72.1 58.3 72.65C61.25 73.6 63.95 73.45 66.1 73.15C68.5 72.8 73.45 70.15 74.45 67.25C75.5 64.35 75.5 61.9 75.15 61.35C74.8 60.8 74.05 60.55 72.8 59.95Z" fill="white"/>
</svg>
