<svg width="100" height="100" viewBox="0 0 100 100" fill="none" xmlns="http://www.w3.org/2000/svg">
<path d="M29 0H71C87 0 100 13 100 29V71C100 78.6913 96.9447 86.0675 91.5061 91.5061C86.0675 96.9447 78.6913 100 71 100H29C13 100 0 87 0 71V29C0 21.3087 3.05535 13.9325 8.4939 8.4939C13.9325 3.05535 21.3087 0 29 0ZM28 10C23.2261 10 18.6477 11.8964 15.2721 15.2721C11.8964 18.6477 10 23.2261 10 28V72C10 81.95 18.05 90 28 90H72C76.7739 90 81.3523 88.1036 84.7279 84.7279C88.1036 81.3523 90 76.7739 90 72V28C90 18.05 81.95 10 72 10H28ZM76.25 17.5C77.9076 17.5 79.4973 18.1585 80.6694 19.3306C81.8415 20.5027 82.5 22.0924 82.5 23.75C82.5 25.4076 81.8415 26.9973 80.6694 28.1694C79.4973 29.3415 77.9076 30 76.25 30C74.5924 30 73.0027 29.3415 71.8306 28.1694C70.6585 26.9973 70 25.4076 70 23.75C70 22.0924 70.6585 20.5027 71.8306 19.3306C73.0027 18.1585 74.5924 17.5 76.25 17.5ZM50 25C56.6304 25 62.9893 27.6339 67.6777 32.3223C72.3661 37.0107 75 43.3696 75 50C75 56.6304 72.3661 62.9893 67.6777 67.6777C62.9893 72.3661 56.6304 75 50 75C43.3696 75 37.0107 72.3661 32.3223 67.6777C27.6339 62.9893 25 56.6304 25 50C25 43.3696 27.6339 37.0107 32.3223 32.3223C37.0107 27.6339 43.3696 25 50 25ZM50 35C46.0218 35 42.2064 36.5803 39.3934 39.3934C36.5803 42.2064 35 46.0218 35 50C35 53.9782 36.5803 57.7936 39.3934 60.6066C42.2064 63.4197 46.0218 65 50 65C53.9782 65 57.7936 63.4197 60.6066 60.6066C63.4197 57.7936 65 53.9782 65 50C65 46.0218 63.4197 42.2064 60.6066 39.3934C57.7936 36.5803 53.9782 35 50 35Z" fill="white"/>
</svg>
