<svg width="209" height="50" viewBox="0 0 209 50" fill="none" xmlns="http://www.w3.org/2000/svg">
<rect width="209" height="50" rx="10" fill="#19BF3D"/>
<path d="M30.2841 33L25.5114 15.5455H27.6591L31.3068 29.7614H31.4773L35.1932 15.5455H37.5795L41.2955 29.7614H41.4659L45.1136 15.5455H47.2614L42.4886 33H40.3068L36.4545 19.0909H36.3182L32.4659 33H30.2841ZM51.6335 25.125V33H49.6222V15.5455H51.6335V21.9545H51.804C52.1108 21.2784 52.571 20.7415 53.1847 20.3438C53.804 19.9403 54.6278 19.7386 55.6562 19.7386C56.5483 19.7386 57.3295 19.9176 58 20.2756C58.6705 20.6278 59.1903 21.1705 59.5597 21.9034C59.9347 22.6307 60.1222 23.5568 60.1222 24.6818V33H58.1108V24.8182C58.1108 23.7784 57.8409 22.9744 57.3011 22.4062C56.767 21.8324 56.0256 21.5455 55.0767 21.5455C54.4176 21.5455 53.8267 21.6847 53.304 21.9631C52.7869 22.2415 52.3778 22.6477 52.0767 23.1818C51.7813 23.7159 51.6335 24.3636 51.6335 25.125ZM67.6541 33.3068C66.8246 33.3068 66.0717 33.1506 65.3956 32.8381C64.7195 32.5199 64.1825 32.0625 63.7848 31.4659C63.3871 30.8636 63.1882 30.1364 63.1882 29.2841C63.1882 28.5341 63.3359 27.9261 63.6314 27.4602C63.9268 26.9886 64.3217 26.6193 64.8161 26.3523C65.3104 26.0852 65.8558 25.8864 66.4524 25.7557C67.0547 25.6193 67.6598 25.5114 68.2678 25.4318C69.0632 25.3295 69.7081 25.2528 70.2024 25.2017C70.7024 25.1449 71.0661 25.0511 71.2933 24.9205C71.5263 24.7898 71.6428 24.5625 71.6428 24.2386V24.1705C71.6428 23.3295 71.4126 22.6761 70.9524 22.2102C70.4979 21.7443 69.8075 21.5114 68.8814 21.5114C67.9212 21.5114 67.1683 21.7216 66.6229 22.142C66.0774 22.5625 65.6939 23.0114 65.4723 23.4886L63.5632 22.8068C63.9041 22.0114 64.3587 21.392 64.9268 20.9489C65.5007 20.5 66.1257 20.1875 66.8018 20.0114C67.4837 19.8295 68.1541 19.7386 68.8132 19.7386C69.2337 19.7386 69.7166 19.7898 70.2621 19.892C70.8132 19.9886 71.3445 20.1903 71.8558 20.4972C72.3729 20.804 72.8018 21.267 73.1428 21.8864C73.4837 22.5057 73.6541 23.3352 73.6541 24.375V33H71.6428V31.2273H71.5405C71.4041 31.5114 71.1768 31.8153 70.8587 32.1392C70.5405 32.4631 70.1172 32.7386 69.5888 32.9659C69.0604 33.1932 68.4155 33.3068 67.6541 33.3068ZM67.9609 31.5C68.7564 31.5 69.4268 31.3438 69.9723 31.0312C70.5234 30.7188 70.9382 30.3153 71.2166 29.821C71.5007 29.3267 71.6428 28.8068 71.6428 28.2614V26.4205C71.5575 26.5227 71.37 26.6165 71.0803 26.7017C70.7962 26.7812 70.4666 26.8523 70.0916 26.9148C69.7223 26.9716 69.3615 27.0227 69.0092 27.0682C68.6626 27.108 68.3814 27.142 68.1655 27.1705C67.6428 27.2386 67.1541 27.3494 66.6996 27.5028C66.2507 27.6506 65.8871 27.875 65.6087 28.1761C65.3359 28.4716 65.1996 28.875 65.1996 29.3864C65.1996 30.0852 65.4581 30.6136 65.9751 30.9716C66.4979 31.3239 67.1598 31.5 67.9609 31.5ZM83.0185 19.9091V21.6136H76.2344V19.9091H83.0185ZM78.2116 16.7727H80.223V29.25C80.223 29.8182 80.3054 30.2443 80.4702 30.5284C80.6406 30.8068 80.8565 30.9943 81.1179 31.0909C81.3849 31.1818 81.6662 31.2273 81.9616 31.2273C82.1832 31.2273 82.3651 31.2159 82.5071 31.1932C82.6491 31.1648 82.7628 31.142 82.848 31.125L83.2571 32.9318C83.1207 32.983 82.9304 33.0341 82.6861 33.0852C82.4418 33.142 82.1321 33.1705 81.7571 33.1705C81.1889 33.1705 80.6321 33.0483 80.0866 32.804C79.5469 32.5597 79.098 32.1875 78.7401 31.6875C78.3878 31.1875 78.2116 30.5568 78.2116 29.7955V16.7727ZM95.0824 22.8409L93.2756 23.3523C93.1619 23.0511 92.9943 22.7585 92.7727 22.4744C92.5568 22.1847 92.2614 21.946 91.8864 21.7585C91.5114 21.571 91.0312 21.4773 90.446 21.4773C89.6449 21.4773 88.9773 21.6619 88.4432 22.0312C87.9148 22.3949 87.6506 22.858 87.6506 23.4205C87.6506 23.9205 87.8324 24.3153 88.196 24.6051C88.5597 24.8949 89.1278 25.1364 89.9006 25.3295L91.8438 25.8068C93.0142 26.0909 93.8864 26.5256 94.4602 27.1108C95.0341 27.6903 95.321 28.4375 95.321 29.3523C95.321 30.1023 95.1051 30.7727 94.6733 31.3636C94.2472 31.9545 93.6506 32.4205 92.8835 32.7614C92.1165 33.1023 91.2244 33.2727 90.2074 33.2727C88.8722 33.2727 87.767 32.983 86.892 32.4034C86.017 31.8239 85.4631 30.9773 85.2301 29.8636L87.1392 29.3864C87.321 30.0909 87.6648 30.6193 88.1705 30.9716C88.6818 31.3239 89.3494 31.5 90.1733 31.5C91.1108 31.5 91.8551 31.3011 92.4062 30.9034C92.9631 30.5 93.2415 30.017 93.2415 29.4545C93.2415 29 93.0824 28.6193 92.7642 28.3125C92.446 28 91.9574 27.767 91.2983 27.6136L89.1165 27.1023C87.9176 26.8182 87.0369 26.3778 86.4744 25.7812C85.9176 25.179 85.6392 24.4261 85.6392 23.5227C85.6392 22.7841 85.8466 22.1307 86.2614 21.5625C86.6818 20.9943 87.2528 20.5483 87.9744 20.2244C88.7017 19.9006 89.5256 19.7386 90.446 19.7386C91.7415 19.7386 92.7585 20.0227 93.4972 20.5909C94.2415 21.1591 94.7699 21.9091 95.0824 22.8409ZM99.3374 33H97.1214L103.531 15.5455H105.712L112.121 33H109.906L104.69 18.3068H104.553L99.3374 33ZM100.156 26.1818H109.087V28.0568H100.156V26.1818ZM114.567 37.9091V19.9091H116.511V21.9886H116.749C116.897 21.7614 117.102 21.4716 117.363 21.1193C117.63 20.7614 118.011 20.4432 118.505 20.1648C119.005 19.8807 119.681 19.7386 120.533 19.7386C121.636 19.7386 122.607 20.0142 123.448 20.5653C124.289 21.1165 124.945 21.8977 125.417 22.9091C125.888 23.9205 126.124 25.1136 126.124 26.4886C126.124 27.875 125.888 29.0767 125.417 30.0938C124.945 31.1051 124.292 31.8892 123.457 32.446C122.621 32.9972 121.658 33.2727 120.567 33.2727C119.727 33.2727 119.053 33.1335 118.548 32.8551C118.042 32.571 117.653 32.25 117.38 31.892C117.107 31.5284 116.897 31.2273 116.749 30.9886H116.579V37.9091H114.567ZM116.545 26.4545C116.545 27.4432 116.69 28.3153 116.979 29.071C117.269 29.821 117.692 30.4091 118.249 30.8352C118.806 31.2557 119.488 31.4659 120.295 31.4659C121.136 31.4659 121.837 31.2443 122.4 30.8011C122.968 30.3523 123.394 29.75 123.678 28.9943C123.968 28.233 124.113 27.3864 124.113 26.4545C124.113 25.5341 123.971 24.7045 123.687 23.9659C123.408 23.2216 122.985 22.6335 122.417 22.2017C121.854 21.7642 121.147 21.5455 120.295 21.5455C119.477 21.5455 118.789 21.7528 118.232 22.1676C117.675 22.5767 117.255 23.1506 116.971 23.8892C116.687 24.6222 116.545 25.4773 116.545 26.4545ZM129.192 37.9091V19.9091H131.136V21.9886H131.374C131.522 21.7614 131.727 21.4716 131.988 21.1193C132.255 20.7614 132.636 20.4432 133.13 20.1648C133.63 19.8807 134.306 19.7386 135.158 19.7386C136.261 19.7386 137.232 20.0142 138.073 20.5653C138.914 21.1165 139.57 21.8977 140.042 22.9091C140.513 23.9205 140.749 25.1136 140.749 26.4886C140.749 27.875 140.513 29.0767 140.042 30.0938C139.57 31.1051 138.917 31.8892 138.082 32.446C137.246 32.9972 136.283 33.2727 135.192 33.2727C134.352 33.2727 133.678 33.1335 133.173 32.8551C132.667 32.571 132.278 32.25 132.005 31.892C131.732 31.5284 131.522 31.2273 131.374 30.9886H131.204V37.9091H129.192ZM131.17 26.4545C131.17 27.4432 131.315 28.3153 131.604 29.071C131.894 29.821 132.317 30.4091 132.874 30.8352C133.431 31.2557 134.113 31.4659 134.92 31.4659C135.761 31.4659 136.462 31.2443 137.025 30.8011C137.593 30.3523 138.019 29.75 138.303 28.9943C138.593 28.233 138.738 27.3864 138.738 26.4545C138.738 25.5341 138.596 24.7045 138.312 23.9659C138.033 23.2216 137.61 22.6335 137.042 22.2017C136.479 21.7642 135.772 21.5455 134.92 21.5455C134.102 21.5455 133.414 21.7528 132.857 22.1676C132.3 22.5767 131.88 23.1506 131.596 23.8892C131.312 24.6222 131.17 25.4773 131.17 26.4545Z" fill="white"/>
<path d="M177.4 15.5466C176.178 14.3118 174.722 13.3328 173.117 12.6667C171.512 12.0005 169.791 11.6605 168.053 11.6666C160.773 11.6666 154.84 17.5999 154.84 24.8799C154.84 27.2132 155.453 29.4799 156.6 31.4799L154.733 38.3333L161.733 36.4933C163.667 37.5466 165.84 38.1066 168.053 38.1066C175.333 38.1066 181.267 32.1733 181.267 24.8932C181.267 21.3599 179.893 18.0399 177.4 15.5466ZM168.053 35.8666C166.08 35.8666 164.147 35.3333 162.453 34.3333L162.053 34.0933L157.893 35.1866L159 31.1333L158.733 30.7199C157.637 28.9692 157.055 26.9456 157.053 24.8799C157.053 18.8266 161.987 13.8933 168.04 13.8933C170.973 13.8933 173.733 15.0399 175.8 17.1199C176.823 18.1385 177.634 19.3501 178.186 20.6845C178.737 22.0188 179.019 23.4494 179.013 24.8932C179.04 30.9466 174.107 35.8666 168.053 35.8666ZM174.08 27.6532C173.747 27.4932 172.12 26.6933 171.827 26.5732C171.52 26.4666 171.307 26.4132 171.08 26.7332C170.853 27.0666 170.227 27.8132 170.04 28.0266C169.853 28.2533 169.653 28.2799 169.32 28.1066C168.987 27.9466 167.92 27.5866 166.667 26.4666C165.68 25.5866 165.027 24.5066 164.827 24.1733C164.64 23.8399 164.8 23.6666 164.973 23.4932C165.12 23.3466 165.307 23.1066 165.467 22.9199C165.627 22.7332 165.693 22.5866 165.8 22.3732C165.907 22.1466 165.853 21.9599 165.773 21.7999C165.693 21.6399 165.027 20.0133 164.76 19.3466C164.493 18.7066 164.213 18.7866 164.013 18.7733H163.373C163.147 18.7733 162.8 18.8533 162.493 19.1866C162.2 19.5199 161.347 20.3199 161.347 21.9466C161.347 23.5733 162.533 25.1466 162.693 25.3599C162.853 25.5866 165.027 28.9199 168.333 30.3466C169.12 30.6933 169.733 30.8933 170.213 31.0399C171 31.2933 171.72 31.2532 172.293 31.1732C172.933 31.0799 174.253 30.3732 174.52 29.5999C174.8 28.8266 174.8 28.1733 174.707 28.0266C174.613 27.8799 174.413 27.8132 174.08 27.6532Z" fill="white"/>
</svg>
